PathFileType	4	(X/Y/Z)	C:/Users/beibeiliu/ov580/test_trc/User2\sequence.1_training_dense_right.trc
DataRate	CameraRate	NumFrames	NumMarkers	Units	OrigDataRate	OrigDataStartFrame	OrigNumFrames
120	120	16	19	mm	120	176	200
Frame#	Time	ThumbCMC			ThumbMCP			ThumbIP			ThumbTip			IndexMCP			IndexPIP			IndexTip			MiddleMCP			MiddlePIP			MiddleTip			RingMCP			RingPIP			RingTip			PinkyMCP			PinkyPIP			PinkyTip			BackHand1			BackHand2			BackHand3	
		X0	Y0	Z0	X1	Y1	Z1	X2	Y2	Z2	X3	Y3	Z3	X4	Y4	Z4	X5	Y5	Z5	X6	Y6	Z6	X7	Y7	Z7	X8	Y8	Z8	X9	Y9	Z9	X10	Y10	Z10	X11	Y11	Z11	X12	Y12	Z12	X13	Y13	Z13	X14	Y14	Z14	X15	Y15	Z15	X16	Y16	Z16	X17	Y17	Z17	X18	Y18	Z18	
175	1.45833	12.0283	22.102	7.44532	-15.5886	25.7274	-7.07154	-39.0557	18.5961	-29.6129	-60.9319	13.6868	-47.1988	9.37442	-11.6218	-72.0567	-6.55959	-22.078	-94.8583	-16.4826	-36.3241	-114.549	36.3212	-27.8062	-76.6642	27.6068	-46.6314	-103.503	20.5393	-63.0092	-124.761	56.4356	-42.1921	-66.7779	51.7229	-55.7738	-86.5465	47.543	-73.2438	-113.739	74.6566	-53.2365	-43.3371	73.3317	-70.2986	-64.7095	76.6744	-82.7274	-84.3769	67.2683	-9.83751	-23.0317	76.3265	8.26462	8.00218	43.4139	19.3683	-12.9909	
176	1.46667	19.8882	34.1608	10.6016	-6.80042	41.4559	-7.67148	-33.1599	39.1286	-30.409	-54.3764	37.5735	-45.2079	4.1229	-9.13977	-68.5141	-9.86491	-20.9034	-85.4549	-28.2304	-34.0369	-107.324	24.5097	-32.4437	-70.7817	7.65351	-49.9303	-93.8203	-2.80644	-65.9697	-112.747	40.8645	-51.5287	-60.114	33.096	-68.9525	-78.9823	21.6266	-82.801	-96.8699	53.8806	-60.2428	-37.3354	51.6491	-82.9032	-50.501	47.9538	-99.6952	-69.8237	65.1565	-17.355	-20.1756	79.553	0.4433	6.91375	49.4948	20.9462	-11.6412	
177	1.475	29.216	46.51	5.34626	5.27593	57.1809	-10.5242	-20.4776	59.1469	-33.3498	-41.1242	64.5873	-43.3588	0.887027	3.72753	-63.8515	-19.1003	-8.24731	-83.327	-38.4401	-16.9307	-98.6641	9.30869	-28.915	-68.0425	-7.61348	-42.8304	-83.5365	-28.1462	-60.8326	-103.32	22.0775	-46.5452	-53.6681	6.92116	-66.6367	-70.1676	-8.11348	-79.7729	-84.5796	33.8142	-66.4469	-32.2206	22.2926	-84.9689	-42.5079	14.1686	-101.293	-54.8404	59.835	-19.6098	-15.7102	76.3905	-8.28187	4.51988	53.8225	18.437	-15.7966	
178	1.48333	42.0245	54.0409	2.78229	23.6538	65.6489	-11.1592	-2.69651	80.6301	-36.1142	-23.8279	86.0226	-50.0877	-1.48689	16.1163	-65.5563	-21.276	7.35598	-82.6023	-41.3073	4.90586	-96.6625	3.78452	-13.1753	-63.3033	-20.5305	-25.3648	-79.2284	-45.7332	-39.2028	-96.3436	6.98491	-37.745	-51.1108	-11.6167	-55.3461	-61.5695	-33.8544	-62.37	-77.8854	15.7739	-56.7625	-23.7888	-5.41659	-70.737	-36.4524	-18.7299	-84.4428	-46.7024	51.8989	-20.6385	-15.0786	76.0941	-6.49146	5.8899	57.8573	21.8337	-17.3408	
179	1.49167	54.8443	56.7426	-2.73867	39.4942	73.0197	-21.4129	19.3823	89.3598	-40.5368	0.823108	98.5942	-54.9292	6.241	27.5669	-63.9817	-18.8072	30.0469	-86.0042	-43.5142	23.621	-100.413	-3.17211	-0.0933987	-64.7845	-31.3957	-5.98371	-80.4041	-59.0682	-14.2129	-93.8899	-7.34545	-27.2807	-47.4131	-30.0136	-31.8917	-60.0797	-53.4189	-37.0427	-71.4475	-1.90929	-41.8525	-19.1367	-24.6009	-49.0228	-28.386	-46.3463	-60.0383	-38.0531	43.1223	-16.8875	-16.6789	68.5995	-8.57609	4.35026	60.0652	19.6243	-19.8203	
180	1.5	69.1409	54.5924	-5.91782	58.7657	74.6697	-28.329	46.4261	97.2183	-49.7313	31.9005	110.487	-62.2735	8.60729	36.0894	-70.3693	-10.4409	41.6469	-86.025	-32.2704	49.2626	-103.704	-2.56223	15.1076	-63.0673	-30.4045	16.7019	-79.3101	-61.2129	18.5864	-93.5133	-14.48	-8.10159	-43.2983	-40.9291	-3.71831	-59.3899	-66.4503	-3.12838	-68.4943	-15.7759	-16.996	-18.1691	-42.9629	-19.3135	-25.5576	-67.0636	-23.3554	-34.0037	38.5365	-8.49179	-15.2865	64.3601	-14.2407	7.82241	59.8491	16.2245	-19.1123	
181	1.50833	78.1886	45.8722	-8.5005	80.3435	69.2243	-33.754	67.5786	89.0807	-60.7101	59.7476	106.023	-74.7074	19.981	42.8725	-71.4044	-1.88188	55.0339	-93.496	-16.4731	66.2377	-108.161	-5.54482	27.0743	-65.6716	-30.0813	40.2496	-84.8145	-56.8206	47.0567	-95.8965	-25.2316	14.728	-46.237	-43.5288	22.0774	-55.9114	-69.8201	34.1993	-71.7061	-31.3775	5.60988	-17.0758	-49.0742	14.364	-24.9688	-74.9983	16.3354	-32.8025	27.4761	-3.41892	-14.0521	47.5151	-12.2231	7.94656	59.4279	10.4667	-16.7057	
182	1.51667	82.0344	34.2136	-14.3985	92.0485	52.5178	-38.7259	89.7744	73.3202	-67.0729	82.3962	89.3969	-85.9324	26.7095	41.637	-78.8781	12.6055	55.8632	-101.214	-0.673006	68.3558	-117.62	-0.0367466	34.0654	-69.711	-20.2609	47.6948	-86.3789	-45.5813	66.7727	-106.856	-16.6266	30.2795	-48.1729	-38.5493	42.5325	-61.4694	-59.5822	55.9353	-75.1449	-28.5731	26.7521	-18.5399	-53.4381	39.7139	-28.4686	-70.7235	47.3352	-37.2528	17.6745	2.71629	-11.8907	38.3258	-9.92469	9.55842	55.0315	6.53064	-19.234	
183	1.525	89.7733	21.2277	-15.029	103.857	35.9788	-42.6308	106.68	52.0325	-73.1609	105.648	67.2046	-88.0604	39.0802	27.1904	-83.9779	34.4235	38.4629	-107.852	22.0648	53.6423	-133.249	8.90867	26.5572	-79.8132	-4.31114	39.6188	-99.1136	-22.6313	57.0412	-121.187	-8.8613	27.7769	-59.9859	-27.259	39.4644	-75.062	-41.4517	54.6437	-97.2474	-22.1821	29.4387	-31.4177	-36.9289	42.6787	-44.3429	-57.5307	48.5057	-60.6909	23.7216	1.20987	-19.4551	35.5838	-12.9784	9.92221	57.9462	-1.99144	-22.3854	
184	1.53333	103.472	8.93265	-16.5233	116.515	21.4316	-45.6982	120.734	34.8423	-75.2061	119.745	46.7268	-97.3016	57.4726	3.63299	-93.952	51.6244	12.2738	-122.12	39.4845	21.5219	-146.799	28.2786	-0.0456438	-86.7802	16.7203	9.92607	-118.766	-0.157329	21.7994	-143.563	6.31453	0.95596	-70.857	-7.74515	9.77331	-94.7504	-23.2342	18.9607	-116.171	-7.3133	6.663	-45.384	-23.7351	15.1086	-63.3194	-46.0306	20.4848	-80.2948	34.9396	-16.6947	-24.8993	47.6973	-22.7576	3.70127	72.5023	-17.1318	-23.3743	
185	1.54167	109.888	3.02475	-20.4965	123.639	15.1357	-46.0958	130.792	27.2136	-76.8602	129.557	38.5728	-97.3963	74.5955	-16.9868	-95.9906	67.5326	-13.7424	-127.253	56.871	-8.22386	-153.851	49.4446	-26.5885	-96.2039	32.121	-22.0908	-125.988	16.353	-16.1213	-153.92	23.0042	-27.643	-84.2657	10.44	-25.4293	-107.778	-5.13417	-20.24	-130.595	6.69942	-23.8861	-60.6689	-13.2267	-20.4028	-73.7452	-29.9253	-20.0679	-95.7742	50.1982	-36.2298	-30.5434	62.6472	-37.7436	2.37843	87.0456	-28.6734	-26.0291	
186	1.55	111.719	4.37812	-21.5727	121.149	19.7838	-46.4357	125.775	33.4232	-80.7186	121.024	42.4279	-101.524	82.2944	-24.1025	-101.343	78.0024	-23.645	-124.269	68.1319	-21.9991	-156.409	56.7957	-41.8771	-101.156	47.0004	-40.8802	-127.04	30.4166	-41.6073	-157.219	37.7331	-47.0042	-83.3753	21.3438	-51.2615	-107.455	6.6874	-52.0106	-131.537	15.199	-49.2356	-59.2451	0.631811	-50.8892	-82.0331	-12.2476	-56.1066	-99.0445	56.8354	-50.4762	-33.9245	72.2225	-49.8971	0.323144	95.5443	-31.8596	-30.3085	
187	1.55833	98.1543	7.86407	-18.7047	104.696	26.2695	-43.2427	106.97	43.874	-76.0858	103.029	52.9379	-98.0829	84.788	-22.7111	-96.9283	82.2287	-21.635	-129.053	73.2989	-23.1989	-151.75	69.3398	-43.9422	-98.3477	55.2312	-50.8175	-128.523	41.1564	-53.9097	-159.242	50.6204	-58.8201	-84.4245	37.7865	-65.1819	-109.455	23.725	-72.31	-137.512	28.8957	-69.3554	-60.702	14.0411	-77.2395	-81.8215	3.12919	-85.5643	-101.316	71.213	-52.5178	-30.8611	78.7275	-54.1415	0.376252	96.3927	-31.6126	-25.2413	
188	1.56667	86.2084	14.4712	-15.0549	86.7685	36.2695	-38.9427	82.8339	52.0763	-69.8303	74.4471	60.9246	-89.7985	83.9581	-15.1692	-96.1352	80.725	-13.7177	-126.566	72.604	-18.8694	-151.342	73.7331	-45.8125	-101.313	64.9903	-48.5699	-129.576	55.3211	-54.8982	-154.869	61.6549	-65.9754	-85.9422	52.5805	-74.6759	-109.783	43.2798	-80.0429	-135.773	47.5998	-77.9827	-61.3803	35.2296	-92.6844	-85.9225	27.2974	-105.033	-106.114	81.0928	-58.1654	-30.0743	89.7543	-52.1592	-3.43686	97.8183	-23.5709	-22.7895	
189	1.575	72.9123	17.8177	-9.5406	65.7534	35.8863	-30.8341	56.6155	53.3695	-65.6753	46.5487	62.965	-85.3528	81.1055	-2.79453	-95.4324	77.6869	-2.55946	-121.97	72.2315	-5.1646	-150.42	82.2745	-34.2498	-99.5751	75.4585	-42.3724	-129.264	68.4635	-50.9518	-156.76	78.2116	-56.8341	-85.6907	72.9791	-70.841	-109.136	67.875	-75.8839	-136.675	70.1661	-79.5785	-63.5095	62.9667	-90.111	-89.2989	62.2582	-102.802	-108.375	93.9085	-46.4645	-34.9487	101.313	-43.8792	-3.25674	95.0287	-10.5203	-23.0379	
190	1.58333	60.6883	20.0057	-5.37382	46.0575	36.5576	-25.7785	32.2596	49.1578	-56.6958	21.3225	54.3471	-78.7838	76.5897	6.08237	-92.4642	73.9839	4.90677	-120.346	70.1746	5.71956	-144.621	90.5947	-19.6633	-96.3625	87.5092	-23.3025	-125.081	86.2605	-33.732	-158.147	96.9203	-47.8511	-89.4437	95.3723	-51.9264	-112.822	96.5992	-61.3092	-140.428	96.3294	-67.537	-70.6422	95.2389	-78.0861	-90.9313	101.261	-86.3256	-110.811	104.42	-37.014	-29.5378	110.269	-31.4886	2.12826	92.9385	2.02986	-22.5251	
